#!OML:ASF X:\für Bonn\!DataBase\2005_08_10_Bjorn_Final\c3d\bjorn.ASF
:FULLY-SPECIFIED
:DEGREES
61
root -21.8567 18.322 -26.7962 -356.29 357.57 -358.981
lowerback 1.87812 0.838552 -4.84027
upperback 12.0142 1.81582 -4.89803
thorax 11.9231 0.71602 -2.47446
lowerneck -2.61529 2.33928 -0.745305
upperneck -0.389602 3.13898 1.85863
head 0.267431 1.583 0.716502
rclavicle -8.74653e-015 -1.59028e-015
rhumerus -37.9042 -1.4974 -97.9358
rradius 30.6906
rwrist -7.98814
rhand -16.202 17.9441
rfingers 7.12502
rthumb 10.0052 -11.798
lclavicle -8.74653e-015 -1.59028e-015
lhumerus -14.5482 -18.3029 88.184
lradius 78.5308
lwrist -5.31894
lhand -34.4668 -17.809
lfingers 7.12502
lthumb -7.63019 12.0334
rfemur -34.638 -4.44219 13.3156
rtibia 65.5889
rfoot -21.5192 14.0595
rtoes -18.4782
lfemur 1.20201 7.86007 -24.519
ltibia 30.5127
lfoot -28.9936 -2.75997
ltoes -10.9103
62
root -21.841 18.2867 -26.6987 -356.385 357.332 -358.901
lowerback 2.29018 0.87864 -4.89625
upperback 12.1264 1.84913 -4.97409
thorax 11.8082 0.732335 -2.5297
lowerneck -2.76586 2.39582 -0.588083
upperneck -0.929026 3.21966 1.98385
head 0.127084 1.62294 0.726248
rclavicle -1.11319e-014 -2.70347e-014
rhumerus -38.8106 -0.490533 -98.3978
rradius 31.6242
rwrist -9.70547
rhand -15.7968 17.5612
rfingers 7.12502
rthumb 10.3962 -12.1617
lclavicle -1.11319e-014 -2.70347e-014
lhumerus -13.9865 -18.6804 87.9737
lradius 80.7258
lwrist -4.99197
lhand -34.7722 -17.735
lfingers 7.12502
lthumb -7.92491 12.0964
rfemur -35.4546 -4.3743 13.1415
rtibia 65.8247
rfoot -21.6166 13.883
rtoes -19.2552
lfemur 1.75059 7.85563 -24.6448
ltibia 30.3464
lfoot -29.0727 -2.79906
ltoes -10.936
63
root -21.826 18.2542 -26.597 -356.45 357.103 -358.861
lowerback 2.66085 0.91705 -4.92156
upperback 12.2465 1.88081 -5.03069
thorax 11.7281 0.74934 -2.58132
lowerneck -2.90408 2.44926 -0.418627
upperneck -1.54358 3.29843 2.08574
head -0.0372616 1.66039 0.726123
rclavicle -1.51076e-014 -2.38542e-014
rhumerus -39.7275 0.534924 -98.87
rradius 32.7073
rwrist -11.5165
rhand -15.2894 17.0021
rfingers 7.12502
rthumb 10.8857 -12.6958
lclavicle -1.51076e-014 -2.38542e-014
lhumerus -13.3456 -19.0613 87.7305
lradius 82.865
lwrist -4.74383
lhand -35.0402 -17.6081
lfingers 7.12502
lthumb -8.18359 12.2135
rfemur -36.2827 -4.28824 13.0171
rtibia 66.0027
rfoot -21.7168 13.6846
rtoes -19.9501
lfemur 2.30112 7.83172 -24.7339
ltibia 30.1565
lfoot -29.1458 -2.78221
ltoes -11.1543
64
root -21.8117 18.2252 -26.4904 -356.455 356.894 -358.881
lowerback 2.92523 0.944568 -4.88614
upperback 12.3818 1.9054 -5.07946
thorax 11.7318 0.767886 -2.65902
lowerneck -3.15491 2.49808 -0.170467
upperneck -2.09325 3.36719 2.08947
head -0.160294 1.69217 0.685439
rclavicle -3.18055e-015 2.54444e-014
rhumerus -40.6046 1.59408 -99.3792
rradius 33.8479
rwrist -13.3948
rhand -14.8506 16.7921
rfingers 7.12502
rthumb 11.3088 -12.883
lclavicle -3.18055e-015 2.54444e-014
lhumerus -12.6106 -19.4375 87.3968
lradius 84.9356
lwrist -4.44856
lhand -35.2175 -17.4914
lfingers 7.12502
lthumb -8.35472 12.3234
rfemur -37.1565 -4.19963 12.9674
rtibia 66.134
rfoot -21.8001 13.4537
rtoes -20.626
lfemur 2.82999 7.86514 -24.7365
ltibia 29.922
lfoot -29.1916 -2.81081
ltoes -11.5699
65
root -21.7971 18.2008 -26.3804 -356.45 356.736 -358.944
lowerback 3.1952 0.954907 -4.81884
upperback 12.5164 1.90261 -5.09644
thorax 11.7299 0.774299 -2.72158
lowerneck -3.52264 2.54479 0.0207128
upperneck -2.49526 3.4312 2.14153
head -0.221129 1.72285 0.672269
rclavicle -1.03368e-014 1.59028e-015
rhumerus -41.5468 2.79305 -99.9352
rradius 35.1325
rwrist -15.4535
rhand -14.4367 16.2758
rfingers 7.12502
rthumb 11.708 -13.377
lclavicle -1.03368e-014 1.59028e-015
lhumerus -11.8882 -19.7965 87.1069
lradius 86.8892
lwrist -4.35515
lhand -35.4917 -17.3734
lfingers 7.12502
lthumb -8.61933 12.4307
rfemur -38.009 -4.15941 12.9729
rtibia 66.2059
rfoot -21.8333 13.223
rtoes -21.181
lfemur 3.39155 7.82613 -24.6958
ltibia 29.6233
lfoot -29.2223 -2.85854
ltoes -11.9774
66
root -21.783 18.1799 -26.2641 -356.415 356.587 -359.048
lowerback 3.41957 0.965137 -4.71346
upperback 12.6238 1.89862 -5.08915
thorax 11.7228 0.782451 -2.77751
lowerneck -3.94736 2.59636 0.219266
upperneck -2.70919 3.49509 2.1527
head -0.214842 1.75461 0.648049
rclavicle -9.54166e-015 6.83819e-014
rhumerus -42.633 4.00712 -100.49
rradius 36.5817
rwrist -17.5272
rhand -14.0257 15.6196
rfingers 7.12502
rthumb 12.1043 -14.0103
lclavicle -9.54166e-015 6.83819e-014
lhumerus -11.204 -20.1469 86.8361
lradius 88.6794
lwrist -4.25556
lhand -35.8416 -17.3408
lfingers 7.12502
lthumb -8.95697 12.4491
rfemur -38.8573 -4.14351 13.0327
rtibia 66.2317
rfoot -21.891 12.9812
rtoes -21.9942
lfemur 3.98939 7.80452 -24.6022
ltibia 29.2536
lfoot -29.2095 -2.96907
ltoes -12.2835
67
root -21.7701 18.1626 -26.1438 -356.389 356.49 -359.15
lowerback 3.66298 0.959349 -4.64403
upperback 12.7073 1.86867 -5.05096
thorax 11.6729 0.772369 -2.78039
lowerneck -4.37848 2.65825 0.403471
upperneck -2.76995 3.5675 2.12863
head -0.160772 1.79173 0.617329
rclavicle 1.59028e-015 4.77083e-015
rhumerus -43.8859 5.35361 -101.085
rradius 38.2015
rwrist -19.7285
rhand -13.7133 14.8627
rfingers 7.12502
rthumb 12.4055 -14.7492
lclavicle 1.59028e-015 4.77083e-015
lhumerus -10.5735 -20.4781 86.6074
lradius 90.2817
lwrist -4.15225
lhand -36.3037 -17.4618
lfingers 7.12502
lthumb -9.40287 12.3085
rfemur -39.6723 -4.14536 13.0885
rtibia 66.2161
rfoot -21.9049 12.7586
rtoes -22.6568
lfemur 4.64665 7.76335 -24.4951
ltibia 28.7989
lfoot -29.1388 -3.08803
ltoes -12.625
68
root -21.758 18.1458 -26.0205 -356.351 356.446 -359.237
lowerback 3.87852 0.934026 -4.58766
upperback 12.7763 1.8141 -5.00398
thorax 11.6214 0.748345 -2.76707
lowerneck -4.74331 2.71463 0.588375
upperneck -2.78374 3.63006 2.07431
head -0.102509 1.82367 0.576998
rclavicle -3.18055e-015 -2.70347e-014
rhumerus -45.2454 6.70327 -101.698
rradius 39.9157
rwrist -21.8962
rhand -13.5505 14.1175
rfingers 7.12502
rthumb 12.5625 -15.4849
lclavicle -3.18055e-015 -2.70347e-014
lhumerus -9.95527 -20.7538 86.3893
lradius 91.6771
lwrist -4.09425
lhand -36.8125 -17.6782
lfingers 7.12502
lthumb -9.89376 12.0694
rfemur -40.462 -4.22613 13.1266
rtibia 66.1537
rfoot -21.821 12.6614
rtoes -23.1264
lfemur 5.33425 7.64622 -24.4163
ltibia 28.2563
lfoot -28.9804 -3.11475
ltoes -13.2952
69
root -21.7471 18.1323 -25.8926 -356.326 356.431 -359.363
lowerback 4.10872 0.901938 -4.51143
upperback 12.8333 1.74534 -4.92312
thorax 11.5451 0.717189 -2.72786
lowerneck -5.08469 2.78035 0.741862
upperneck -2.74112 3.70422 2.01761
head -0.0313469 1.86193 0.541871
rclavicle -2.14687e-014 -2.38542e-014
rhumerus -46.6694 8.10286 -102.309
rradius 41.6936
rwrist -24.0533
rhand -13.4974 13.4375
rfingers 7.12502
rthumb 12.6137 -16.1617
lclavicle -2.14687e-014 -2.38542e-014
lhumerus -9.37365 -21.0124 86.2101
lradius 92.9323
lwrist -4.11923
lhand -37.38 -17.8088
lfingers 7.12502
lthumb -10.4412 11.9119
rfemur -41.195 -4.31667 13.2082
rtibia 66.0482
rfoot -21.6963 12.6467
rtoes -23.547
lfemur 6.08999 7.5485 -24.2652
ltibia 27.6384
lfoot -28.7597 -3.30295
ltoes -13.5079
70
root -21.7385 18.1204 -25.7603 -356.337 356.44 -359.483
lowerback 4.34537 0.868584 -4.44431
upperback 12.8956 1.67577 -4.84329
thorax 11.4714 0.684776 -2.68474
lowerneck -5.33044 2.84216 0.900175
upperneck -2.75615 3.7746 1.95717
head 0.0071239 1.89706 0.502861
rclavicle 3.97569e-014 6.83819e-014
rhumerus -48.0436 9.34539 -102.882
rradius 43.4521
rwrist -26.0064
rhand -13.5677 12.914
rfingers 7.12502
rthumb 12.5459 -16.6893
lclavicle 3.97569e-014 6.83819e-014
lhumerus -8.7884 -21.2799 85.9785
lradius 94.0039
lwrist -4.25289
lhand -38.005 -17.8937
lfingers 7.12502
lthumb -11.0441 11.7958
rfemur -41.8593 -4.41005 13.2842
rtibia 65.899
rfoot -21.5001 12.6745
rtoes -23.8184
lfemur 6.91725 7.45823 -24.1019
ltibia 26.976
lfoot -28.5005 -3.46743
ltoes -14.101
71
root -21.7289 18.1104 -25.6228 -356.341 356.449 -359.63
lowerback 4.53995 0.824548 -4.35515
upperback 12.9657 1.59337 -4.73544
thorax 11.4313 0.64606 -2.62383
lowerneck -5.61472 2.91079 0.998065
upperneck -2.74618 3.85539 1.89113
head 0.0586848 1.93828 0.473371
rclavicle 3.10104e-014 4.92986e-014
rhumerus -49.3021 10.5955 -103.368
rradius 45.2286
rwrist -27.8393
rhand -13.7605 12.5631
rfingers 7.12502
rthumb 12.36 -17.0515
lclavicle 3.10104e-014 4.92986e-014
lhumerus -8.23053 -21.4714 85.806
lradius 94.9394
lwrist -4.47472
lhand -38.719 -18.0697
lfingers 7.12502
lthumb -11.7326 11.5817
rfemur -42.4926 -4.50478 13.3801
rtibia 65.7052
rfoot -21.2165 12.8519
rtoes -23.8248
lfemur 7.75103 7.3728 -23.9102
ltibia 26.2892
lfoot -28.1609 -3.70753
ltoes -14.4572
72
root -21.7213 18.102 -25.4794 -356.353 356.492 -359.836
lowerback 4.68891 0.773102 -4.1791
upperback 13.0621 1.50652 -4.64084
thorax 11.452 0.61484 -2.62646
lowerneck -5.87326 2.97742 1.15732
upperneck -2.79732 3.93126 1.83816
head 0.0884353 1.97581 0.436889
rclavicle 0 2.8625e-014
rhumerus -50.3705 11.6652 -103.789
rradius 47.0281
rwrist -29.5467
rhand -13.9836 12.2817
rfingers 7.12502
rthumb 12.1449 -17.3458
lclavicle 0 2.8625e-014
lhumerus -7.6602 -21.694 85.5343
lradius 95.7769
lwrist -4.69982
lhand -39.4179 -18.2886
lfingers 7.12502
lthumb -12.4066 11.3232
rfemur -43.0594 -4.63344 13.5589
rtibia 65.4658
rfoot -20.8968 13.051
rtoes -24.0043
lfemur 8.60543 7.25491 -23.6497
ltibia 25.593
lfoot -27.7608 -3.9606
ltoes -14.7356
73
root -21.7153 18.0963 -25.3342 -356.355 356.593 -360.068
lowerback 4.83146 0.692083 -3.98868
upperback 13.162 1.37943 -4.52735
thorax 11.4791 0.564167 -2.61834
lowerneck -6.0103 3.05331 1.29331
upperneck -3.02184 4.02639 1.76433
head 0.0453657 2.02063 0.394055
rclavicle 3.18055e-015 1.59028e-014
rhumerus -51.2611 12.6539 -104.108
rradius 48.6267
rwrist -30.8328
rhand -14.2692 12.0779
rfingers 7.12502
rthumb 11.8695 -17.5657
lclavicle 3.18055e-015 1.59028e-014
lhumerus -7.15061 -21.8269 85.3042
lradius 96.4978
lwrist -5.08924
lhand -40.1097 -18.5383
lfingers 7.12502
lthumb -13.0735 11.032
rfemur -43.6075 -4.78384 13.7826
rtibia 65.1833
rfoot -20.4954 13.2878
rtoes -24.0879
lfemur 9.43469 7.12418 -23.3413
ltibia 24.9102
lfoot -27.3125 -4.19943
ltoes -15.2537
74
root -21.7099 18.0934 -25.185 -356.316 356.702 -360.279
lowerback 4.95452 0.610036 -3.83906
upperback 13.1943 1.24774 -4.39268
thorax 11.4357 0.505802 -2.56187
lowerneck -5.83107 3.1326 1.3803
upperneck -3.45843 4.14036 1.69448
head -0.114288 2.07144 0.352336
rclavicle -2.38542e-015 -2.8625e-014
rhumerus -52.1932 13.4663 -104.261
rradius 50.1272
rwrist -31.6747
rhand -14.5247 12.1366
rfingers 7.12502
rthumb 11.6231 -17.521
lclavicle -2.38542e-015 -2.8625e-014
lhumerus -6.91039 -21.9286 85.2047
lradius 97.2028
lwrist -5.57088
lhand -40.7314 -18.7127
lfingers 7.12502
lthumb -13.6727 10.8182
rfemur -44.154 -4.98643 14.0038
rtibia 64.8536
rfoot -20.0729 13.5303
rtoes -24.333
lfemur 10.1986 7.01528 -23.0498
ltibia 24.2495
lfoot -26.7886 -4.54561
ltoes -15.5712
75
root -21.7056 18.0948 -25.0332 -356.223 356.852 -360.42
lowerback 5.05057 0.505448 -3.77498
upperback 13.1798 1.08714 -4.25692
thorax 11.352 0.42446 -2.45619
lowerneck -5.51438 3.20408 1.36806
upperneck -3.98943 4.25541 1.6714
head -0.326191 2.1223 0.337183
rclavicle 0 -4.92986e-014
rhumerus -53.1072 14.0985 -104.243
rradius 51.5121
rwrist -31.9335
rhand -14.8052 12.8972
rfingers 7.12502
rthumb 11.3526 -16.7755
lclavicle 0 -4.92986e-014
lhumerus -6.91437 -22.0049 85.2041
lradius 97.887
lwrist -6.14619
lhand -41.31 -18.9064
lfingers 7.12502
lthumb -14.2303 10.5861
rfemur -44.72 -5.21837 14.1614
rtibia 64.4729
rfoot -19.5579 13.7665
rtoes -24.6131
lfemur 10.8791 6.86566 -22.842
ltibia 23.6179
lfoot -26.2153 -4.88868
ltoes -15.8219
